<svg width="103" height="146" viewBox="0 0 103 146" fill="none" xmlns="http://www.w3.org/2000/svg">
<path d="M51.0352 0C58.7872 0 65.7232 1.496 71.8432 4.48801C77.9632 7.48001 82.8592 11.356 86.5312 16.116C90.2032 20.876 93.2632 26.52 95.7112 33.048C98.1592 39.576 99.7912 46.104 100.607 52.632C101.559 59.024 102.035 65.756 102.035 72.828C102.035 81.94 101.219 90.508 99.5872 98.532C98.0912 106.42 95.5072 114.104 91.8352 121.584C88.1632 129.064 82.7912 134.98 75.7192 139.332C68.7832 143.684 60.4192 145.86 50.6272 145.86C34.3072 145.86 21.7952 139.808 13.0912 127.704C4.38716 115.464 0.0351562 97.92 0.0351562 75.072C0.0351562 65.96 0.783156 57.392 2.27916 49.368C3.91116 41.208 6.49516 33.252 10.0312 25.5C13.5672 17.748 18.8032 11.56 25.7392 6.93601C32.8112 2.31201 41.2432 0 51.0352 0ZM51.0352 7.752C37.5712 7.752 27.0992 13.736 19.6192 25.704C12.1392 37.536 8.39916 54.128 8.39916 75.48C8.39916 81.464 8.73916 87.176 9.41916 92.616C10.0992 98.056 11.3912 103.7 13.2952 109.548C15.1992 115.26 17.6472 120.224 20.6392 124.44C23.7672 128.52 27.8472 131.92 32.8792 134.64C38.0472 137.224 43.9632 138.516 50.6272 138.516C58.9232 138.516 66.0632 136.476 72.0472 132.396C78.0312 128.316 82.4512 122.876 85.3072 116.076C88.2992 109.14 90.4072 102.204 91.6312 95.268C92.8552 88.196 93.4672 80.784 93.4672 73.032C93.4672 65.28 92.8552 57.936 91.6312 51C90.5432 44.064 88.5032 37.196 85.5112 30.396C82.6552 23.46 78.2352 17.952 72.2512 13.872C66.4032 9.792 59.3312 7.752 51.0352 7.752Z" fill="#2B2A2A"/>
</svg>
