<svg width="16" height="16" viewBox="0 0 16 16" fill="none" xmlns="http://www.w3.org/2000/svg">
<g clipPath="url(#clip0)">
<path d="M8.00933 2C4.85414 2 2.28711 4.59184 2.28711 7.77778V10.5926H3.39823V7.77778C3.39823 5.20462 5.46677 3.11112 8.00936 3.11112C10.552 3.11112 12.6205 5.20447 12.6205 7.77778V10.5926H13.7316V7.77778C13.7315 4.59203 11.1645 2 8.00933 2Z" fill="#AB844A"/>
<path d="M10.6942 6.59253C10.3874 6.59253 10.1387 6.84125 10.1387 7.14809V8.68512C10.1387 8.99196 10.3874 9.24068 10.6942 9.24068C11.0011 9.24068 11.2498 8.99215 11.2498 8.68512V7.14809C11.2498 6.84125 11.0011 6.59253 10.6942 6.59253Z" fill="#AB844A"/>
<path d="M14.1944 10.0371H1.80556C1.49872 10.0371 1.25 10.2858 1.25 10.5927V13.1853C1.25 13.4921 1.49869 13.7408 1.80556 13.7408H14.1944C14.5015 13.7408 14.75 13.4921 14.75 13.1853V10.5927C14.75 10.2858 14.5013 10.0371 14.1944 10.0371ZM13.6389 12.6297H2.36112V11.1482H13.6389V12.6297H13.6389Z" fill="#AB844A"/>
<path d="M9.101 13.1853V13.7964C9.101 14.399 8.611 14.889 8.00841 14.889C7.40581 14.889 6.91581 14.399 6.91581 13.7964V13.1853H5.80469V13.7964C5.80469 15.0114 6.79322 16.0002 8.00838 16.0002C9.22354 16.0002 10.2121 15.0116 10.2121 13.7964V13.1853H9.101Z" fill="#AB844A"/>
<path d="M8.00897 0C6.95731 0 6.10156 0.85575 6.10156 1.90741V2.74075H7.21269V1.90741C7.21269 1.47575 7.57731 1.11109 8.00897 1.11109C8.44063 1.11109 8.80528 1.47572 8.80528 1.90741V2.72222H9.91641V1.90741C9.91638 0.85575 9.06084 0 8.00897 0Z" fill="#AB844A"/>
</g>
<defs>
<clipPath id="clip0">
<rect width="16" height="16" fill="white"/>
</clipPath>
</defs>
</svg>
